<?xml version="1.0" encoding="utf-8"?>
<!-- Generator: Adobe Illustrator 19.1.0, SVG Export Plug-In . SVG Version: 6.00 Build 0)  -->
<svg version="1.1" id="Layer_1" xmlns="http://www.w3.org/2000/svg" xmlns:xlink="http://www.w3.org/1999/xlink" x="0px" y="0px"
	 viewBox="0 0 169.4 172.2" enable-background="new 0 0 169.4 172.2" xml:space="preserve">
<g>
	<path fill="#00ADB6" d="M168.7,86.1c0,46.4-37.6,83.9-83.9,83.9S0.8,132.5,0.8,86.1c0-23.2,0-83.9,0-83.9s60.8,0,83.9,0
		C131.1,2.2,168.7,39.8,168.7,86.1z"/>
	<g>
		<path fill="#FFFFFF" d="M137.8,90.8c-0.2-0.6-0.5-1.1-1-1.4c-4-3.1-8.1-4.8-12.1-5.1c0,0-0.5-0.1-1.8-0.1c-1.3,0-2,0.1-2,0.1
			c-3.9,0.5-7.8,2.2-11.7,5.2c-0.5,0.4-0.8,0.9-1,1.4c-1.9,6.5-2.4,12.8-1.6,19.8c0.7,6.1,2.4,12.3,4.4,19.1c0.2,0.6,0.5,1.1,1,1.4
			c3,2.3,6.9,3.6,11,3.6c4.1,0,8-1.3,11-3.6c0.5-0.4,0.8-0.9,1-1.4c2-6.8,3.7-13,4.4-19.1C140.2,103.6,139.7,97.3,137.8,90.8
			L137.8,90.8z M125.4,102.1c0,1.3-1.1,2.4-2.4,2.4c-1.3,0-2.4-1.1-2.4-2.4V91.9c0-1.3,1.1-2.4,2.4-2.4c1.3,0,2.4,1.1,2.4,2.4V102.1
			z M125.4,102.1"/>
		<path fill="#FFFFFF" d="M104.4,128.1H100l-3.6-12.3h7.4c-0.2-1.3-0.4-2.6-0.6-4c-0.5-4-0.5-7.8-0.2-11.6H38.2V45.8h87.9v34.9
			c2.9,0.3,5.7,1.1,8.5,2.5V41.5c0-2.3-1.9-4.3-4.3-4.3H34c-2.3,0-4.3,1.9-4.3,4.3v70c0,2.3,1.9,4.3,4.3,4.3h33.9l-3.6,12.3h-4.4
			c-1.1,0-2,0.9-2,2v3.3c0,1.1,0.9,2,2,2h44.6c1.1,0,2-0.9,2-2v-3.3C106.5,129,105.6,128.1,104.4,128.1L104.4,128.1z M104.4,128.1"
			/>
	</g>
</g>
</svg>
