<?xml version="1.0" encoding="utf-8"?>
<!-- Generator: Adobe Illustrator 19.1.0, SVG Export Plug-In . SVG Version: 6.00 Build 0)  -->
<svg version="1.1" xmlns="http://www.w3.org/2000/svg" xmlns:xlink="http://www.w3.org/1999/xlink" x="0px" y="0px"
	 viewBox="0 0 30 30" enable-background="new 0 0 30 30" xml:space="preserve">
<g id="icon_x5F_hamburger" display="none">
	<g display="inline">
		<rect x="0" y="0" fill="#4D6471" width="30" height="6.1"/>
		<rect x="0" y="11.8" fill="#4D6471" width="30" height="6.1"/>
		<rect x="0" y="23.9" fill="#4D6471" width="30" height="6.1"/>
	</g>
</g>
<g id="Layer_2">
	<g>
		<path fill="#4D6471" d="M25.5,19.9v-1l-1.5-2.7h1.5v-1.6l-3.7-4.5c-0.5,0.5-1.1,0.8-1.7,1l0.6,1.9l-1.4,0.6
			c-1.3,0.6-2.5,0.8-4.1,0.8c-3.3,0-5.9-1.9-7-4.7H8.1l-3.5,5.5c-0.6,0.5-1,1.2-1,2.1c0,1.5,1.2,2.6,2.6,2.7c-1,0.4-1.7,1.3-1.7,2.5
			c0,0.8,0.4,1.5,1,2c-1.4,0.1-2.4,1.2-2.4,2.6c0,1.5,1.2,2.7,2.7,2.7H25v-1.2h-1.2v-2.9H25v-0.5h1.5V24h-0.9V21h0.9v-1.2H25.5z
			 M4.8,17.4c0-0.6,0.3-1,0.8-1.3h17.7v2.8H6.2C5.4,18.9,4.8,18.2,4.8,17.4L4.8,17.4z M22.6,28.6H5.7c-0.8,0-1.5-0.7-1.5-1.5
			s0.7-1.5,1.5-1.5h16.9V28.6z M24.4,24H7.2c-0.8,0-1.5-0.7-1.5-1.5c0-0.8,0.7-1.5,1.5-1.5h17.2V24z M24.4,24"/>
		<path fill="#4D6471" d="M19,3.5C18.5,3.2,17.6,3,16.8,3c-2.6,0-4.3,2-4.3,4.3c0,1.5,0.9,2.4,2.1,2.4c1,0,1.8-0.5,2.4-1.4h0
			c0.1,1,0.7,1.4,1.6,1.4c2,0,3.5-1.7,3.5-4.4C22,2.2,19.7,0,16.5,0c-4.2,0-6.9,3.2-6.9,7c0,3.6,2.7,5.8,5.7,5.8
			c1.3,0,2.3-0.2,3.4-0.7L18.4,11c-0.7,0.4-1.7,0.6-2.7,0.6c-2.7,0-4.7-1.7-4.7-4.8c0-3.5,2.5-5.7,5.3-5.7c2.8,0,4.4,1.8,4.4,4.2
			c0,2.1-1,3.1-1.8,3.1c-0.5,0-0.6-0.5-0.5-1.6L19,3.5z M16.8,6.3c-0.2,1.1-0.9,1.9-1.6,1.9c-0.6,0-0.9-0.4-0.9-1.1
			c0-1.4,1-2.6,2.2-2.6c0.2,0,0.4,0,0.6,0.1L16.8,6.3z M16.8,6.3"/>
	</g>
</g>
</svg>
