<?xml version="1.0" encoding="utf-8"?>
<!-- Generator: Adobe Illustrator 19.1.0, SVG Export Plug-In . SVG Version: 6.00 Build 0)  -->
<svg version="1.1" id="Layer_1" xmlns="http://www.w3.org/2000/svg" xmlns:xlink="http://www.w3.org/1999/xlink" x="0px" y="0px"
	 viewBox="0 0 282.9 143.1" enable-background="new 0 0 282.9 143.1" xml:space="preserve">
<g>
	<g>
		<g>
			<path fill="#25C8C0" d="M70.8,1.4c38.3,0,69.3,31,69.3,69.3s-31,69.3-69.3,69.3c-19.1,0-69.3,0-69.3,0s0-50.2,0-69.3
				C1.5,32.5,32.5,1.4,70.8,1.4z"/>
		</g>
		<g>
			<path fill-rule="evenodd" clip-rule="evenodd" fill="#FFFFFF" d="M65.5,123.9c-0.9,0-1.7-0.7-1.7-1.7c0-0.9,0.7-1.7,1.7-1.7h10.7
				c0.9,0,1.7,0.7,1.7,1.7c0,0.9-0.7,1.7-1.7,1.7H65.5z M65.5,123.9"/>
			<g>
				<path fill-rule="evenodd" clip-rule="evenodd" fill="#FFFFFF" d="M61.2,110.7c-0.9,0-1.7-0.7-1.7-1.7c0-0.9,0.7-1.7,1.7-1.7
					h19.3c0.9,0,1.7,0.7,1.7,1.7c0,0.9-0.7,1.7-1.7,1.7H61.2z M61.2,110.7"/>
				<path fill-rule="evenodd" clip-rule="evenodd" fill="#FFFFFF" d="M63.3,117.3c-0.9,0-1.7-0.8-1.7-1.7c0-0.9,0.7-1.7,1.7-1.7h15
					c0.9,0,1.7,0.7,1.7,1.7c0,0.9-0.8,1.7-1.7,1.7H63.3z M63.3,117.3"/>
				<path fill-rule="evenodd" clip-rule="evenodd" fill="#FFFFFF" d="M69.3,94.4c0,0.9-0.7,1.7-1.7,1.7c-0.9,0-1.7-0.7-1.7-1.7
					c0-7-0.2-12.2-1.2-17c-1-4.8-2.7-9.2-5.7-14.7c-0.5-0.8-0.2-1.8,0.6-2.2c0.8-0.4,1.8-0.2,2.2,0.6c3.2,5.8,5,10.5,6.1,15.6
					C69,81.7,69.3,87.1,69.3,94.4L69.3,94.4z M69.3,94.4"/>
				<path fill-rule="evenodd" clip-rule="evenodd" fill="#FFFFFF" d="M75.7,94.4c0,0.9-0.7,1.7-1.7,1.7c-0.9,0-1.7-0.7-1.7-1.7
					c0-7.2,0.2-12.6,1.2-17.7c1-5.1,2.8-9.8,6.1-15.6c0.4-0.8,1.5-1.1,2.2-0.6c0.8,0.4,1.1,1.5,0.6,2.2c-3,5.5-4.7,9.9-5.7,14.7
					C75.9,82.1,75.7,87.4,75.7,94.4L75.7,94.4z M75.7,94.4"/>
				<path fill-rule="evenodd" clip-rule="evenodd" fill="#FFFFFF" d="M60,63.4c-0.9-0.3-1.3-1.2-1.1-2.1c0.3-0.9,1.2-1.3,2.1-1.1
					c1.2,0.4,2.2,0.9,3.1,1.3l0.1,0.1c1.4,0.7,2.6,1.3,3.5,0.6l2-1.7c0.7-0.6,1.8-0.5,2.3,0.2c0.6,0.7,0.5,1.8-0.3,2.3l-2,1.7
					c-2.5,2.1-4.6,1.1-7.1-0.2l-0.1,0C61.8,64.1,60.9,63.7,60,63.4L60,63.4z M60,63.4"/>
				<path fill-rule="evenodd" clip-rule="evenodd" fill="#FFFFFF" d="M72.5,25.7c0,0.9-0.7,1.7-1.7,1.7c-0.9,0-1.7-0.7-1.7-1.7v-6.4
					c0-0.9,0.8-1.7,1.7-1.7c0.9,0,1.7,0.7,1.7,1.7V25.7z M72.5,25.7"/>
				<path fill-rule="evenodd" clip-rule="evenodd" fill="#FFFFFF" d="M80.6,60.3c0.9-0.3,1.8,0.2,2.1,1.1c0.3,0.9-0.2,1.8-1.1,2.1
					c-0.9,0.3-1.8,0.7-2.6,1.1l-0.1,0c-2.5,1.2-4.6,2.3-7.1,0.2l-2-1.7c-0.7-0.6-0.8-1.6-0.2-2.3c0.6-0.7,1.6-0.8,2.3-0.3l2,1.7
					c0.9,0.7,2.1,0.2,3.5-0.6l0.1-0.1C78.5,61.1,79.5,60.6,80.6,60.3L80.6,60.3z M80.6,60.3"/>
				<path fill-rule="evenodd" clip-rule="evenodd" fill="#FFFFFF" d="M91.7,43.5c5.3,5.3,8.6,12.7,8.6,20.9c0,3.2-0.5,6.3-1.5,9.2
					c-1,3-2.4,5.8-4.2,8.3c-3.1,4.2-5.5,6.9-7.4,9c-3.5,3.8-5,5.5-5,11.1c0,0.9-0.7,1.7-1.7,1.7H61.2c-0.9,0-1.7-0.7-1.7-1.7
					c0-5.5-1.5-7.2-5-11c-1.9-2.1-4.4-4.8-7.6-9.1c-1.8-2.5-3.3-5.3-4.2-8.3c-0.9-2.9-1.5-6-1.5-9.2c0-4,0.8-7.8,2.2-11.3l0-0.1
					c1.5-3.6,3.7-6.8,6.4-9.5c2.7-2.7,6-4.9,9.6-6.4c3.5-1.5,7.3-2.2,11.3-2.2c4,0,7.8,0.8,11.3,2.2C85.7,38.5,89,40.7,91.7,43.5
					L91.7,43.5z M97,64.3c0-7.2-2.9-13.8-7.7-18.5c-2.4-2.4-5.3-4.4-8.5-5.7c-3.1-1.3-6.5-2-10-2c-3.6,0-7,0.7-10,2
					c-3.2,1.3-6.1,3.3-8.5,5.7c-2.4,2.4-4.3,5.3-5.7,8.4l0,0.1c-1.3,3.1-2,6.5-2,10c0,2.8,0.5,5.6,1.3,8.1c0.9,2.7,2.1,5.1,3.7,7.3
					c3,4.1,5.5,6.8,7.3,8.8v0c3.7,4,5.5,6,5.8,11.6H79c0.3-5.5,2.1-7.5,5.8-11.6c1.9-2.1,4.2-4.7,7.2-8.8c1.6-2.2,2.9-4.7,3.7-7.3
					C96.6,69.9,97,67.2,97,64.3L97,64.3z M97,64.3"/>
				<path fill-rule="evenodd" clip-rule="evenodd" fill="#FFFFFF" d="M91.2,31.6c-0.5,0.8-1.5,1.1-2.3,0.6c-0.8-0.4-1.1-1.5-0.6-2.2
					l3.2-5.6c0.4-0.8,1.5-1.1,2.2-0.6c0.8,0.5,1.1,1.5,0.6,2.2L91.2,31.6z M91.2,31.6"/>
				<path fill-rule="evenodd" clip-rule="evenodd" fill="#FFFFFF" d="M53.3,30c0.5,0.8,0.2,1.8-0.6,2.2c-0.8,0.5-1.8,0.2-2.2-0.6
					l-3.2-5.6c-0.5-0.8-0.2-1.8,0.6-2.2c0.8-0.5,1.8-0.2,2.3,0.6L53.3,30z M53.3,30"/>
				<path fill-rule="evenodd" clip-rule="evenodd" fill="#FFFFFF" d="M38.9,43.3c0.8,0.4,1,1.5,0.6,2.2c-0.5,0.8-1.5,1.1-2.3,0.6
					l-5.6-3.2c-0.8-0.5-1.1-1.5-0.6-2.3c0.5-0.8,1.5-1.1,2.3-0.6L38.9,43.3z M38.9,43.3"/>
				<path fill-rule="evenodd" clip-rule="evenodd" fill="#FFFFFF" d="M104.4,46.1c-0.8,0.5-1.8,0.2-2.2-0.6
					c-0.5-0.8-0.2-1.8,0.6-2.2l5.6-3.2c0.8-0.5,1.8-0.2,2.2,0.6c0.5,0.8,0.2,1.8-0.6,2.3L104.4,46.1z M104.4,46.1"/>
				<path fill-rule="evenodd" clip-rule="evenodd" fill="#FFFFFF" d="M53.6,70.9c0.4,0.8,0,1.8-0.9,2.2c-0.8,0.3-1.8,0-2.2-0.9
					c-0.6-1.3-1-2.7-1.3-4.2c-0.3-1.4-0.4-2.9-0.4-4.4c0-0.9,0.7-1.7,1.7-1.7c0.9,0,1.7,0.8,1.7,1.7c0,1.3,0.1,2.6,0.4,3.7
					C52.7,68.6,53.1,69.8,53.6,70.9L53.6,70.9z M53.6,56.3c-0.3,0.8-1.3,1.2-2.2,0.9c-0.8-0.4-1.2-1.3-0.9-2.2
					c0.6-1.3,1.2-2.6,2-3.7l0,0h0c0.8-1.2,1.7-2.3,2.7-3.3c1-1,2.1-1.9,3.3-2.7v0c1.1-0.8,2.4-1.5,3.7-2c1.3-0.6,2.7-1,4.2-1.3
					c1.4-0.3,2.9-0.4,4.4-0.4c0.9,0,1.7,0.7,1.7,1.7c0,0.9-0.7,1.7-1.7,1.7c-1.3,0-2.6,0.1-3.7,0.4c-1.2,0.3-2.4,0.6-3.6,1.1
					c-1.1,0.5-2.1,1-3.2,1.7c-1,0.7-1.9,1.4-2.8,2.3c-0.8,0.9-1.6,1.8-2.3,2.8C54.6,54.2,54,55.2,53.6,56.3L53.6,56.3z M53.6,56.3"
					/>
			</g>
		</g>
	</g>
	<g>
		<g>
			<path fill="#25C8C0" d="M282.5,72.2c0,36.1-29.3,65.4-65.4,65.4s-65.4-29.3-65.4-65.4c0-18.1,0-65.4,0-65.4s47.4,0,65.4,0
				C253.2,6.8,282.5,36.1,282.5,72.2z"/>
		</g>
		<g>
			<path fill="#FFFFFF" d="M210.1,20.8c-0.5,0-1,0.3-1.3,0.7l-4.6,6.9h-15.7c-0.9,0-1.6,0.7-1.6,1.6V46c0,0.9,0.7,1.6,1.6,1.6h15.9
				c0.9,0,1.6-0.7,1.6-1.6V33.4l-3.2,4.8v6.2H190V31.7h12l-4.5,6.7l-2-3.9c-0.4-0.8-1.3-1.1-2.1-0.7c-0.8,0.4-1.1,1.3-0.7,2.1
				c0,0,0,0,0,0l3.2,6.4c0.4,0.8,1.3,1.1,2.1,0.7c0.2-0.1,0.5-0.3,0.6-0.5l12.7-19.1c0.5-0.7,0.3-1.7-0.4-2.2
				C210.7,20.9,210.4,20.8,210.1,20.8L210.1,20.8z M217.1,34.9c-0.9,0-1.6,0.7-1.6,1.6v3.2c0,0.9,0.7,1.6,1.6,1.6h28.7
				c0.9,0,1.6-0.7,1.6-1.6v-3.2c0-0.9-0.7-1.6-1.6-1.6H217.1z M188.4,50.8c-0.9,0-1.6,0.7-1.6,1.6v15.9c0,0.9,0.7,1.6,1.6,1.6h15.9
				c0.9,0,1.6-0.7,1.6-1.6V52.4c0-0.9-0.7-1.6-1.6-1.6H188.4z M190,54h12.7v12.7H190V54z M217.1,57.2c-0.9,0-1.6,0.7-1.6,1.6v3.2
				c0,0.9,0.7,1.6,1.6,1.6h28.7c0.9,0,1.6-0.7,1.6-1.6v-3.2c0-0.9-0.7-1.6-1.6-1.6H217.1z M188.4,73.1c-0.9,0-1.6,0.7-1.6,1.6v15.9
				c0,0.9,0.7,1.6,1.6,1.6h15.9c0.9,0,1.6-0.7,1.6-1.6V74.7c0-0.9-0.7-1.6-1.6-1.6H188.4z M190,76.3h12.7V89H190V76.3z M217.1,79.5
				c-0.9,0-1.6,0.7-1.6,1.6v3.2c0,0.9,0.7,1.6,1.6,1.6h28.7c0.9,0,1.6-0.7,1.6-1.6v-3.2c0-0.9-0.7-1.6-1.6-1.6H217.1z M188.4,95.4
				c-0.9,0-1.6,0.7-1.6,1.6v15.9c0,0.9,0.7,1.6,1.6,1.6h15.9c0.9,0,1.6-0.7,1.6-1.6V97c0-0.9-0.7-1.6-1.6-1.6H188.4z M190,98.6h12.7
				v12.7H190V98.6z M217.1,101.8c-0.9,0-1.6,0.7-1.6,1.6v3.2c0,0.9,0.7,1.6,1.6,1.6h28.7c0.9,0,1.6-0.7,1.6-1.6v-3.2
				c0-0.9-0.7-1.6-1.6-1.6H217.1z M217.1,101.8"/>
		</g>
	</g>
</g>
</svg>
