<?xml version="1.0" encoding="utf-8"?>
<!-- Generator: Adobe Illustrator 19.1.0, SVG Export Plug-In . SVG Version: 6.00 Build 0)  -->
<svg version="1.1" id="Layer_1" xmlns="http://www.w3.org/2000/svg" xmlns:xlink="http://www.w3.org/1999/xlink" x="0px" y="0px"
	 viewBox="0 0 165 55" enable-background="new 0 0 165 55" xml:space="preserve">
<g>
	<path fill="#818588" d="M28.2,52.3c-13.6,0-24.7-11.1-24.7-24.7c0-13.6,11.1-24.7,24.7-24.7s24.7,11.1,24.7,24.7
		C52.9,41.2,41.8,52.3,28.2,52.3z M28.2,3.4C14.8,3.4,4,14.2,4,27.6c0,13.4,10.9,24.2,24.2,24.2s24.2-10.9,24.2-24.2
		C52.4,14.2,41.5,3.4,28.2,3.4z"/>
	<path fill="#818588" d="M28.2,45.5c-9.9,0-17.9-8-17.9-17.9s8-17.9,17.9-17.9s17.9,8,17.9,17.9S38.1,45.5,28.2,45.5z M28.2,10.2
		c-9.6,0-17.4,7.8-17.4,17.4c0,9.6,7.8,17.4,17.4,17.4s17.4-7.8,17.4-17.4C45.6,18,37.8,10.2,28.2,10.2z"/>
	<path fill="#818588" d="M28.2,37.6c-5.5,0-10-4.5-10-10s4.5-10,10-10s10,4.5,10,10S33.7,37.6,28.2,37.6z M28.2,18.1
		c-5.2,0-9.5,4.3-9.5,9.5s4.3,9.5,9.5,9.5s9.5-4.3,9.5-9.5S33.4,18.1,28.2,18.1z"/>
	<path fill="#818588" d="M28.7,52.4l-7.1-7.9l-10.6,1l0.6-10.6l-8.2-6.8l7.9-7.1l-1-10.6L20.9,11l6.8-8.2l7.1,7.9l10.6-1l-0.6,10.6
		L53,27l-7.9,7.1l1,10.6l-10.6-0.6L28.7,52.4z M21.8,44l6.9,7.7l6.6-8l10.3,0.5l-1-10.3l7.7-6.9l-8-6.6l0.5-10.3l-10.3,1l-6.9-7.7
		l-6.6,8l-10.3-0.5l1,10.3l-7.7,6.9l8,6.6L11.6,45L21.8,44z"/>
	<path fill="#818588" d="M21.5,44.8l-0.6-9.6L11.3,35l6.4-7.2l-6.7-6.9l9.6-0.6l0.1-9.7l7.2,6.4l6.9-6.7l0.6,9.6l9.7,0.1l-6.4,7.2
		l6.7,6.9l-9.6,0.6l-0.1,9.7l-7.2-6.4L21.5,44.8z M12.4,34.5l9,0.1l0.5,9l6.5-6.3l6.7,6l0.1-9l9-0.5L38,27.4l6-6.7l-9-0.1l-0.5-9
		L28,17.8l-6.7-6l-0.1,9l-9,0.5l6.3,6.5L12.4,34.5z"/>
	<circle fill="#818588" cx="37.8" cy="5" r="1.2"/>
	<circle fill="#818588" cx="45.1" cy="9.9" r="1.2"/>
	<circle fill="#818588" cx="50.7" cy="17.8" r="1.2"/>
	<circle fill="#818588" cx="52.7" cy="27" r="1.2"/>
	<circle fill="#818588" cx="51.1" cy="36.8" r="1.2"/>
	<circle fill="#818588" cx="45.8" cy="44.6" r="1.2"/>
	<circle fill="#818588" cx="38.9" cy="49.6" r="1.2"/>
	<circle fill="#818588" cx="28.7" cy="52.1" r="1.2"/>
	<circle fill="#818588" cx="19.1" cy="50.5" r="1.2"/>
	<circle fill="#818588" cx="11.1" cy="45.2" r="1.2"/>
	<circle fill="#818588" cx="5.7" cy="36.8" r="1.2"/>
	<circle fill="#818588" cx="3.7" cy="28.3" r="1.2"/>
	<circle fill="#818588" cx="5.2" cy="19.3" r="1.2"/>
	<circle fill="#818588" cx="10.4" cy="10.7" r="1.2"/>
	<circle fill="#818588" cx="18.3" cy="5" r="1.2"/>
	<circle fill="#818588" cx="27.8" cy="3.1" r="1.2"/>
	<circle fill="#818588" cx="27.8" cy="17.5" r="1.2"/>
	<circle fill="#818588" cx="35.2" cy="20.4" r="1.2"/>
	<circle fill="#818588" cx="38.2" cy="27.3" r="1.2"/>
	<circle fill="#818588" cx="35.6" cy="34.3" r="1.2"/>
	<circle fill="#818588" cx="28.6" cy="37.6" r="1.2"/>
	<circle fill="#818588" cx="21.4" cy="35" r="1.2"/>
	<circle fill="#818588" cx="18.1" cy="27.9" r="1.2"/>
	<circle fill="#818588" cx="34.5" cy="11.1" r="1.2"/>
	<circle fill="#818588" cx="44.3" cy="20.3" r="1.2"/>
	<circle fill="#818588" cx="44.7" cy="33.9" r="1.2"/>
	<circle fill="#818588" cx="35.4" cy="43.7" r="1.2"/>
	<circle fill="#818588" cx="21.9" cy="44.1" r="1.2"/>
	<circle fill="#818588" cx="12.1" cy="34.8" r="1.2"/>
	<circle fill="#818588" cx="11.7" cy="21.1" r="1.2"/>
	<circle fill="#818588" cx="21.1" cy="11.4" r="1.2"/>
	<rect x="5" y="20" transform="matrix(0.9659 0.2588 -0.2588 0.9659 5.5222 -1.4972)" fill="#818588" width="6.8" height="0.5"/>
	
		<rect x="16.3" y="7.9" transform="matrix(0.4042 0.9147 -0.9147 0.4042 19.2548 -13.1669)" fill="#818588" width="7" height="0.5"/>
	
		<rect x="35.9" y="4.6" transform="matrix(0.8813 0.4726 -0.4726 0.8813 8.0948 -16.1241)" fill="#818588" width="0.5" height="6.9"/>
	
		<rect x="47.2" y="15.6" transform="matrix(0.3716 0.9284 -0.9284 0.3716 47.536 -32.102)" fill="#818588" width="0.5" height="6.8"/>
	
		<rect x="44.6" y="35.2" transform="matrix(0.9152 0.4029 -0.4029 0.9152 18.3351 -16.3234)" fill="#818588" width="6.8" height="0.5"/>
	
		<rect x="33.8" y="46.4" transform="matrix(0.5083 0.8612 -0.8612 0.5083 58.4525 -9.0871)" fill="#818588" width="6.9" height="0.5"/>
	
		<rect x="20.2" y="44" transform="matrix(0.9214 0.3887 -0.3887 0.9214 20.0082 -4.2101)" fill="#818588" width="0.5" height="6.7"/>
	
		<rect x="8.6" y="32.5" transform="matrix(0.2896 0.9572 -0.9572 0.2896 40.5844 16.9555)" fill="#818588" width="0.5" height="6.7"/>
	<g>
		<g>
			<path fill="#CE1C51" d="M70.8,22.2c0.6,1.1,1.1,2.2,1.7,3.3h0c0.7-1.1,1.3-2.4,1.9-3.6l2.3-4.5c1.1-2.2,1.8-3.5,1.9-4.6
				c0.8,0.1,1.4,0.1,1.8,0.1c0.6,0,1.4,0,2.2-0.1c0.1,0.1,0.1,0.5,0,0.6l-0.5,0c-1.5,0.1-1.7,0.6-1.7,2.3c0,2.5,0.1,6.9,0.3,10.3
				c0.1,1.2,0,1.8,1.2,1.9l0.8,0.1c0.1,0.1,0.1,0.5,0,0.6c-1,0-2-0.1-2.9-0.1c-0.9,0-2,0-3,0.1c-0.2-0.1-0.2-0.5,0-0.6l0.7-0.1
				c1.2-0.1,1.2-0.5,1.2-2L78.5,16h0c-0.2,0.3-1.1,2.2-1.6,3.1l-2.2,4.2c-1.1,2.1-2.2,4.3-2.7,5.4c0,0.1-0.1,0.1-0.2,0.1
				c0,0-0.2,0-0.2-0.1c-0.4-1.3-1.6-3.6-2.2-4.8l-2.2-4.6c-0.5-1.1-1-2.3-1.6-3.4h0c-0.1,1.5-0.2,2.9-0.2,4.2
				c-0.1,1.5-0.2,3.6-0.2,5.6c0,1.8,0.1,2.1,1.1,2.2l0.9,0.1c0.2,0.1,0.1,0.5,0,0.6c-0.8,0-1.8-0.1-2.7-0.1c-0.8,0-1.7,0-2.5,0.1
				c-0.1-0.1-0.2-0.5,0-0.6l0.5-0.1c1-0.1,1.4-0.3,1.5-1.9c0.1-1.6,0.3-2.9,0.4-5.2c0.1-2,0.2-4,0.3-5.3c0-1.5-0.1-1.9-1.6-2l-0.4,0
				c-0.1-0.1-0.1-0.5,0.1-0.6c0.7,0,1.3,0.1,1.9,0.1c0.6,0,1.2,0,2-0.1c-0.1,0.9,0.5,2.4,1.3,3.9L70.8,22.2z"/>
			<path fill="#CE1C51" d="M86.8,16.4c0-2.5,0-2.8-1.5-3l-0.4,0c-0.1-0.1-0.1-0.5,0-0.6c1.1,0,1.9,0.1,2.9,0.1h4.6
				c1.6,0,3,0,3.3-0.1c0.1,0.4,0.3,2.1,0.4,3.2c-0.1,0.1-0.5,0.2-0.6,0c-0.4-1.1-0.6-1.9-1.9-2.3c-0.5-0.1-1.3-0.1-2.4-0.1h-1.8
				c-0.7,0-0.7,0-0.7,1v4.8c0,0.7,0.1,0.7,0.8,0.7H91c1,0,1.8,0,2.1-0.1c0.3-0.1,0.5-0.2,0.6-0.8l0.2-1c0.1-0.1,0.5-0.1,0.6,0
				c0,0.6-0.1,1.5-0.1,2.4c0,0.9,0.1,1.8,0.1,2.3c-0.1,0.2-0.5,0.2-0.6,0l-0.2-0.9c-0.1-0.4-0.3-0.8-0.8-0.9
				c-0.3-0.1-0.9-0.1-1.9-0.1h-1.4c-0.7,0-0.8,0-0.8,0.6v3.4c0,1.3,0.1,2.1,0.5,2.5c0.3,0.3,0.8,0.5,3,0.5c1.9,0,2.6-0.1,3.1-0.4
				c0.4-0.2,1.1-1.1,1.7-2.3c0.2-0.1,0.5,0,0.6,0.2c-0.2,0.8-0.8,2.7-1.1,3.3c-2.2,0-4.4-0.1-6.6-0.1h-2.2c-1.1,0-1.9,0-3.3,0.1
				c-0.1-0.1-0.2-0.5,0-0.6l0.8-0.1c1.4-0.1,1.5-0.5,1.5-3V16.4z M89.9,11.7c-0.2,0-0.3-0.3-0.2-0.6l3.5-2.7
				c0.3-0.2,0.5-0.3,0.7-0.3c0.2,0,0.5,0.2,0.7,0.5c0.2,0.5,0.2,0.8,0.2,1C94.5,9.7,94.4,9.9,94,10L89.9,11.7z"/>
			<path fill="#CE1C51" d="M114.3,28c0.2,0.1,0.1,0.5,0,0.6c-1.1,0-2.1-0.1-3.1-0.1c-1.1,0-2.3,0-3.2,0.1c-0.1-0.1-0.2-0.5,0-0.6
				l0.7-0.1c0.6,0,0.8-0.1,0.8-0.3c0-0.1,0-0.4-0.5-1c-1.1-1.5-2.4-3.4-3.5-4.8c-0.7,0.8-2.5,3.4-3.5,5.1c-0.2,0.3-0.3,0.6-0.3,0.8
				c0,0.1,0.2,0.3,0.7,0.3l0.7,0.1c0.2,0.1,0.1,0.5,0,0.6c-0.9,0-1.8-0.1-2.7-0.1c-0.8,0-1.7,0-2.5,0.1c-0.2-0.1-0.2-0.5-0.1-0.6
				l0.6-0.1c1.3-0.1,2.2-1.2,2.9-2.1c0.3-0.4,2-2.5,3.3-4.4c0.2-0.2,0.2-0.4,0.2-0.5c0-0.1-0.1-0.3-0.3-0.5l-3.7-5.1
				c-0.8-1.1-1.3-1.6-2.1-1.8L98,13.3c-0.1-0.1-0.1-0.5,0-0.6c1.2,0,2,0.1,2.8,0.1c1,0,2.1,0,2.8-0.1c0.2,0.1,0.2,0.4,0,0.6l-0.7,0
				c-0.4,0-0.7,0.2-0.7,0.3c0,0.2,0.2,0.6,0.7,1.3c0.8,1.1,2.3,3.3,3.1,4.4c0.6-0.8,2.8-4.1,3.3-4.8c0.2-0.3,0.3-0.6,0.3-0.8
				c0-0.1-0.4-0.3-0.8-0.3l-0.6-0.1c-0.1-0.2-0.1-0.5,0-0.6c0.9,0,1.6,0.1,2.6,0.1c0.9,0,1.6,0,2.4-0.1c0.2,0.1,0.2,0.5,0,0.6
				l-0.6,0c-0.7,0.1-1.6,0.8-2.6,2c-1,1.2-2,2.6-3.2,4.2c-0.1,0.2-0.2,0.4-0.2,0.5c0,0.1,0,0.2,0.3,0.6l4.2,5.7
				c0.8,1.1,1.5,1.5,2.2,1.6L114.3,28z"/>
			<path fill="#CE1C51" d="M116.9,16.4c0-2.5,0-2.9-1.5-3l-0.6,0c-0.1-0.1-0.1-0.5,0-0.6c1.2,0,2.1,0.1,3.1,0.1c1,0,1.8,0,3-0.1
				c0.1,0.1,0.2,0.5,0,0.6l-0.6,0c-1.4,0.1-1.5,0.5-1.5,3v8.5c0,2.5,0,2.9,1.5,3L121,28c0.1,0.1,0.1,0.5,0,0.6c-1.2,0-2.1-0.1-3-0.1
				c-1,0-1.9,0-3.1,0.1c-0.1-0.1-0.2-0.5,0-0.6l0.6-0.1c1.4-0.2,1.5-0.5,1.5-3V16.4z"/>
			<path fill="#CE1C51" d="M126.2,14.4c1.8-1.4,4.1-2,6.6-2c1.3,0,3.2,0.3,4.3,0.6c0.3,0.1,0.5,0.1,0.7,0.1c0,0.5,0.1,2,0.3,3.5
				c-0.1,0.2-0.5,0.2-0.7,0c-0.4-1.6-1.5-3.5-5-3.5c-3.8,0-7,2.3-7,7.2c0,5,3.3,7.8,7.3,7.8c3.2,0,4.6-2,5.1-3.4
				c0.2-0.1,0.5-0.1,0.6,0.1c-0.2,1.2-0.8,2.8-1.2,3.3c-0.3,0-0.6,0.1-0.9,0.2c-0.5,0.2-2.3,0.5-3.9,0.5c-2.2,0-4.3-0.4-6.1-1.6
				c-2-1.3-3.5-3.5-3.5-6.5C123.1,18.1,124.4,15.9,126.2,14.4z"/>
			<path fill="#CE1C51" d="M140.3,20.8c0-4.8,3.7-8.4,8.7-8.4c5.7,0,8.5,4,8.5,8.2c0,4.8-3.8,8.3-8.5,8.3
				C143.6,28.9,140.3,25.1,140.3,20.8z M155.1,21.3c0-3.9-1.8-8.2-6.5-8.2c-2.6,0-5.9,1.7-5.9,6.9c0,3.5,1.8,8.1,6.6,8.1
				C152.3,28.1,155.1,26,155.1,21.3z"/>
		</g>
	</g>
	<g>
		<path fill="#818588" d="M64,34.1c1.2-0.9,2.7-1.3,4.4-1.3c0.9,0,2.1,0.2,2.9,0.4c0.2,0,0.3,0.1,0.5,0.1c0,0.4,0.1,1.4,0.2,2.3
			c-0.1,0.1-0.3,0.1-0.4,0c-0.2-1.1-1-2.3-3.3-2.3c-2.5,0-4.6,1.5-4.6,4.8c0,3.3,2.2,5.1,4.8,5.1c2.1,0,3-1.3,3.4-2.3
			c0.1-0.1,0.4,0,0.4,0.1c-0.1,0.8-0.5,1.9-0.8,2.2c-0.2,0-0.4,0.1-0.6,0.2c-0.4,0.1-1.5,0.4-2.6,0.4c-1.5,0-2.9-0.3-4.1-1.1
			c-1.3-0.9-2.3-2.3-2.3-4.3C61.9,36.6,62.7,35.1,64,34.1z"/>
		<path fill="#818588" d="M74,39c0-2.7,2.1-4.8,5-4.8c3.3,0,4.9,2.3,4.9,4.7c0,2.8-2.2,4.8-4.9,4.8C75.9,43.7,74,41.5,74,39z
			 M82.6,39.3c0-2.3-1-4.7-3.7-4.7c-1.5,0-3.4,1-3.4,4c0,2,1,4.7,3.8,4.7C81,43.2,82.6,42,82.6,39.3z"/>
		<path fill="#818588" d="M94.8,41.1c0,0.4,0,2,0,2.4c0,0.1-0.1,0.2-0.3,0.2c-0.2-0.2-0.6-0.7-1.8-2.1L89.5,38
			c-0.4-0.4-1.3-1.5-1.6-1.8h0c-0.1,0.2-0.1,0.5-0.1,0.9v3c0,0.6,0,2.4,0.3,2.8c0.1,0.2,0.4,0.2,0.7,0.3l0.4,0
			c0.1,0.1,0.1,0.3,0,0.3c-0.6,0-1.1,0-1.7,0c-0.6,0-1,0-1.5,0c-0.1-0.1-0.1-0.3,0-0.3l0.4,0c0.3,0,0.6-0.1,0.6-0.3
			c0.2-0.5,0.2-2.2,0.2-2.8v-4c0-0.4,0-0.7-0.3-1c-0.2-0.2-0.5-0.3-0.9-0.3l-0.2,0c-0.1-0.1-0.1-0.3,0-0.3c0.6,0,1.3,0,1.6,0
			c0.2,0,0.5,0,0.7,0c0.3,0.7,2,2.5,2.4,3l1.4,1.5c1,1.1,1.7,1.8,2.3,2.5h0c0.1-0.1,0.1-0.3,0.1-0.6v-2.9c0-0.6,0-2.4-0.3-2.8
			c-0.1-0.1-0.3-0.2-0.9-0.3l-0.2,0c-0.1-0.1-0.1-0.3,0-0.3c0.7,0,1.1,0,1.7,0c0.6,0,1,0,1.5,0c0.1,0.1,0.1,0.3,0,0.3l-0.2,0
			c-0.5,0.1-0.7,0.2-0.8,0.3c-0.2,0.5-0.2,2.2-0.2,2.8V41.1z"/>
		<path fill="#818588" d="M99,36.5c0-1.4,0-1.6-0.9-1.7l-0.2,0c-0.1-0.1-0.1-0.3,0-0.3c0.6,0,1.1,0,1.7,0h2.7c0.9,0,1.7,0,1.9,0
			c0.1,0.2,0.2,1.2,0.2,1.8c-0.1,0.1-0.3,0.1-0.4,0c-0.2-0.6-0.3-1.1-1.1-1.3c-0.3-0.1-0.8-0.1-1.4-0.1h-1c-0.4,0-0.4,0-0.4,0.5v2.7
			c0,0.4,0,0.4,0.5,0.4h0.8c0.6,0,1,0,1.2-0.1c0.2-0.1,0.3-0.1,0.3-0.5l0.1-0.6c0.1-0.1,0.3-0.1,0.4,0c0,0.3-0.1,0.9-0.1,1.4
			c0,0.5,0.1,1,0.1,1.3c-0.1,0.1-0.3,0.1-0.4,0l-0.1-0.5c-0.1-0.2-0.2-0.5-0.4-0.5c-0.2-0.1-0.5-0.1-1.1-0.1h-0.8
			c-0.4,0-0.5,0-0.5,0.4v1.9c0,0.7,0,1.2,0.3,1.4c0.2,0.2,0.5,0.3,1.7,0.3c1.1,0,1.5-0.1,1.8-0.2c0.3-0.1,0.6-0.6,1-1.3
			c0.1-0.1,0.3,0,0.4,0.1c-0.1,0.5-0.5,1.5-0.6,1.9c-1.3,0-2.5,0-3.8,0h-1.3c-0.6,0-1.1,0-1.9,0c-0.1,0-0.1-0.3,0-0.3l0.5,0
			c0.8-0.1,0.9-0.3,0.9-1.7V36.5z"/>
		<path fill="#818588" d="M108.6,35.3c1-0.8,2.3-1.2,3.8-1.2c0.8,0,1.8,0.2,2.5,0.3c0.2,0,0.3,0.1,0.4,0.1c0,0.3,0.1,1.2,0.2,2
			c-0.1,0.1-0.3,0.1-0.4,0c-0.2-0.9-0.8-2-2.9-2c-2.2,0-4,1.3-4,4.2c0,2.9,1.9,4.5,4.2,4.5c1.8,0,2.6-1.2,3-2c0.1-0.1,0.3,0,0.4,0.1
			c-0.1,0.7-0.5,1.6-0.7,1.9c-0.2,0-0.3,0.1-0.5,0.1c-0.3,0.1-1.3,0.3-2.2,0.3c-1.3,0-2.5-0.2-3.5-0.9c-1.1-0.8-2-2-2-3.8
			C106.8,37.5,107.5,36.2,108.6,35.3z"/>
		<path fill="#818588" d="M122,41.4c0,1.4,0,1.6,0.8,1.7l0.5,0c0.1,0.1,0.1,0.3,0,0.3c-0.8,0-1.3,0-1.9,0c-0.6,0-1.1,0-2,0
			c-0.1,0-0.1-0.3,0-0.3l0.5,0c0.8-0.1,0.9-0.3,0.9-1.7v-6.1c0-0.4,0-0.4-0.4-0.4h-0.8c-0.6,0-1.4,0-1.7,0.3
			c-0.3,0.3-0.5,0.6-0.6,0.9c-0.1,0.1-0.3,0-0.4-0.1c0.2-0.6,0.4-1.5,0.5-2c0,0,0.2,0,0.3,0c0.1,0.4,0.6,0.4,1.2,0.4h5.7
			c0.8,0,0.9,0,1.1-0.4c0.1,0,0.2,0,0.3,0c-0.2,0.6-0.3,1.7-0.2,2.1c-0.1,0.1-0.3,0.1-0.4,0c0-0.3-0.1-0.8-0.4-1
			c-0.3-0.2-0.9-0.3-1.6-0.3h-1c-0.4,0-0.4,0-0.4,0.5V41.4z"/>
		<path fill="#818588" d="M131.7,40.3c-0.1-0.3-0.2-0.3-0.6-0.3H129c-0.4,0-0.4,0-0.5,0.3l-0.5,1.4c-0.2,0.6-0.3,1-0.3,1.1
			c0,0.2,0.1,0.2,0.4,0.3l0.5,0c0.1,0.1,0.1,0.3,0,0.3c-0.4,0-0.8,0-1.5,0c-0.5,0-1,0-1.4,0c-0.1-0.1-0.1-0.3,0-0.3l0.5,0
			c0.3,0,0.7-0.2,0.8-0.7c0.3-0.6,0.7-1.5,1.2-3.1l1.4-3.7c0.2-0.5,0.3-0.8,0.2-1c0.3-0.1,0.6-0.3,0.7-0.5c0.1,0,0.2,0,0.2,0.1
			c0.2,0.6,0.4,1.2,0.6,1.8l1.9,5.5c0.4,1.2,0.6,1.4,1.2,1.5l0.4,0c0.1,0.1,0.1,0.3,0,0.3c-0.6,0-1.1,0-1.7,0c-0.7,0-1.2,0-1.6,0
			c-0.1-0.1-0.1-0.3,0-0.3l0.4,0c0.3,0,0.5-0.1,0.5-0.2c0-0.2-0.1-0.4-0.2-0.7L131.7,40.3z M128.9,39c-0.1,0.3-0.1,0.3,0.3,0.3h1.7
			c0.4,0,0.4-0.1,0.3-0.4l-0.8-2.2c-0.1-0.3-0.2-0.7-0.3-0.9h0c0,0.1-0.2,0.4-0.3,0.8L128.9,39z"/>
		<path fill="#818588" d="M137.3,36.2c0-1-0.1-1.2-0.7-1.3l-0.3,0c-0.1-0.1-0.1-0.3,0-0.3c1.2-0.1,2.3-0.1,3.6-0.1
			c1.2,0,2.2,0.1,3.1,0.4c1.9,0.7,2.9,2.2,2.9,4c0,1.7-0.9,3.2-2.5,4.1c-0.9,0.5-2.1,0.7-3.2,0.7c-0.9,0-1.8-0.1-2.3-0.1
			c-0.6,0-1.1,0-1.8,0c-0.1,0-0.1-0.3,0-0.3l0.3,0c0.8-0.1,0.8-0.3,0.8-1.7V36.2z M138.5,41.1c0,0.7,0,1.2,0.3,1.5
			c0.3,0.4,0.8,0.6,1.7,0.6c2.7,0,4-1.7,4-4.3c0-1.5-0.8-4.1-4.5-4.1c-0.8,0-1.3,0.1-1.4,0.2c-0.1,0.1-0.1,0.4-0.1,1V41.1z"/>
		<path fill="#818588" d="M147.9,39c0-2.7,2.1-4.8,5-4.8c3.3,0,4.9,2.3,4.9,4.7c0,2.8-2.2,4.8-4.9,4.8
			C149.8,43.7,147.9,41.5,147.9,39z M156.4,39.3c0-2.3-1-4.7-3.7-4.7c-1.5,0-3.4,1-3.4,4c0,2,1,4.7,3.8,4.7
			C154.8,43.2,156.4,42,156.4,39.3z"/>
	</g>
</g>
</svg>
