<?xml version="1.0" encoding="utf-8"?>
<!-- Generator: Adobe Illustrator 19.1.0, SVG Export Plug-In . SVG Version: 6.00 Build 0)  -->
<svg version="1.1" xmlns="http://www.w3.org/2000/svg" xmlns:xlink="http://www.w3.org/1999/xlink" x="0px" y="0px"
	 viewBox="0 0 30 30" enable-background="new 0 0 30 30" xml:space="preserve">
<g id="icon_x5F_1hamburger" display="none">
	<g display="inline">
		<rect x="0" y="0" fill="#4D6471" width="30" height="6.1"/>
		<rect x="0" y="11.8" fill="#4D6471" width="30" height="6.1"/>
		<rect x="0" y="23.9" fill="#4D6471" width="30" height="6.1"/>
	</g>
</g>
<g id="icon_x5F_2estudiaenlinea" display="none">
	<g display="inline">
		<path fill="#4D6471" d="M25.5,19.9v-1l-1.5-2.7h1.5v-1.6l-3.7-4.5c-0.5,0.5-1.1,0.8-1.7,1l0.6,1.9l-1.4,0.6
			c-1.3,0.6-2.5,0.8-4.1,0.8c-3.3,0-5.9-1.9-7-4.7H8.1l-3.5,5.5c-0.6,0.5-1,1.2-1,2.1c0,1.5,1.2,2.6,2.6,2.7c-1,0.4-1.7,1.3-1.7,2.5
			c0,0.8,0.4,1.5,1,2c-1.4,0.1-2.4,1.2-2.4,2.6c0,1.5,1.2,2.7,2.7,2.7H25v-1.2h-1.2v-2.9H25v-0.5h1.5V24h-0.9V21h0.9v-1.2H25.5z
			 M4.8,17.4c0-0.6,0.3-1,0.8-1.3h17.7v2.8H6.2C5.4,18.9,4.8,18.2,4.8,17.4L4.8,17.4z M22.6,28.6H5.7c-0.8,0-1.5-0.7-1.5-1.5
			s0.7-1.5,1.5-1.5h16.9V28.6z M24.4,24H7.2c-0.8,0-1.5-0.7-1.5-1.5c0-0.8,0.7-1.5,1.5-1.5h17.2V24z M24.4,24"/>
		<path fill="#4D6471" d="M19,3.5C18.5,3.2,17.6,3,16.8,3c-2.6,0-4.3,2-4.3,4.3c0,1.5,0.9,2.4,2.1,2.4c1,0,1.8-0.5,2.4-1.4h0
			c0.1,1,0.7,1.4,1.6,1.4c2,0,3.5-1.7,3.5-4.4C22,2.2,19.7,0,16.5,0c-4.2,0-6.9,3.2-6.9,7c0,3.6,2.7,5.8,5.7,5.8
			c1.3,0,2.3-0.2,3.4-0.7L18.4,11c-0.7,0.4-1.7,0.6-2.7,0.6c-2.7,0-4.7-1.7-4.7-4.8c0-3.5,2.5-5.7,5.3-5.7c2.8,0,4.4,1.8,4.4,4.2
			c0,2.1-1,3.1-1.8,3.1c-0.5,0-0.6-0.5-0.5-1.6L19,3.5z M16.8,6.3c-0.2,1.1-0.9,1.9-1.6,1.9c-0.6,0-0.9-0.4-0.9-1.1
			c0-1.4,1-2.6,2.2-2.6c0.2,0,0.4,0,0.6,0.1L16.8,6.3z M16.8,6.3"/>
	</g>
</g>
<g id="icono_x5F_3prepaybachillerato" display="none">
	<g display="inline">
		<path fill="#4D6471" d="M28.7,0H4.6C3.9,0,3.3,0.5,3.3,1.2v3.6C2.3,5,1.7,5.4,1.2,5.7C0.4,6.4,0,7.3,0,8.2c0,0.8,0.4,1.7,1.1,2.3
			C0.4,11.1,0,12,0,12.9c0,0.8,0.4,1.7,1.1,2.3C0.4,15.8,0,16.7,0,17.5c0,0.8,0.4,1.7,1.1,2.3C0.4,20.5,0,21.3,0,22.2
			c0,1.5,1.1,3,3.3,3.1v3.5c0,0.6,0.6,1.2,1.3,1.2h24.1c0.7,0,1.3-0.5,1.3-1.2V1.2C30,0.5,29.4,0,28.7,0L28.7,0z M3.3,23.4
			c-0.9-0.1-1.2-0.7-1.2-1.2c0-0.4,0.2-0.8,0.5-1.1c0.2-0.2,0.4-0.3,0.7-0.4V23.4z M3.3,18.7c-0.9-0.1-1.2-0.7-1.2-1.2
			c0-0.4,0.2-0.8,0.5-1.1c0.2-0.2,0.4-0.3,0.7-0.4V18.7z M3.3,14.1c-0.9-0.1-1.2-0.7-1.2-1.2c0-0.4,0.2-0.8,0.5-1.1
			c0.2-0.2,0.4-0.3,0.7-0.4V14.1z M3.3,9.4C2.4,9.3,2.1,8.7,2.1,8.2c0-0.4,0.2-0.8,0.5-1.1C2.8,7,3.1,6.9,3.3,6.8V9.4z M27.4,27.7
			H5.9v-6.8c0.7,0.4,1.2,1.1,1.2,1.9c0,0.5,0.5,1,1,1c0.6,0,1-0.4,1-1c0-1.9-1.4-3.5-3.3-4v-2.6c0.7,0.4,1.2,1.1,1.2,1.9
			c0,0.5,0.5,1,1,1c0.6,0,1-0.4,1-1c0-1.9-1.4-3.5-3.3-4v-2.6c0.7,0.4,1.2,1.1,1.2,1.9c0,0.5,0.5,1,1,1c0.6,0,1-0.4,1-1
			c0-1.9-1.4-3.5-3.3-4V6.9C6.6,7.3,7.1,8,7.1,8.8c0,0.5,0.5,1,1,1c0.6,0,1-0.4,1-1c0-1.9-1.4-3.5-3.3-4V2.3h21.6L27.4,27.7
			L27.4,27.7z M27.4,27.7"/>
		<path fill="#4D6471" d="M22.1,23.8c0.1,0.1,0.2,0.1,0.3,0.1l2.9-1.5c0.1-0.1,0.1-0.2,0.1-0.3l-1-1.5l-3.3,1.7L22.1,23.8z
			 M22.1,23.8"/>
		<path fill="#4D6471" d="M20.8,21.7l3.3-1.7l-6.2-9.8c-0.1-0.1-0.2-0.2-0.3-0.3l-2.3-1c-0.3-0.1-0.5,0-0.6,0.3l-0.2,2.3
			c0,0.1,0,0.3,0.1,0.4L20.8,21.7z M15.3,10.6l0.8-0.4l0.7,0.3l-1.6,0.8L15.3,10.6z M15.3,10.6"/>
	</g>
</g>
<g id="icono_x5F_4nivelsuperior">
	<g>
		<path fill="#4D6471" d="M1.2,22.9V9.7h12.8l-0.8-1.2H0v15.6h9.6l1.7-1.2H1.2z M1.2,22.9"/>
		<path fill="#4D6471" d="M22.1,22.9h-0.6l1,1.2h0.7v-8.7L22.1,15V22.9z M22.1,22.9"/>
		<rect x="8.6" y="12.4" fill="#4D6471" width="6.9" height="0.9"/>
		<rect x="6" y="14.7" fill="#4D6471" width="12.1" height="1"/>
		<rect x="6" y="16.8" fill="#4D6471" width="12.1" height="1"/>
		<rect x="6" y="18.8" fill="#4D6471" width="12.1" height="1"/>
		<path fill="#4D6471" d="M19.5,23.2c0-1.5-1.2-2.7-2.6-2.7c-1.4,0-2.6,1.2-2.6,2.7c0,1.5,1.2,2.7,2.6,2.7
			C18.4,25.9,19.5,24.7,19.5,23.2L19.5,23.2z M19.5,23.2"/>
		<path fill="#4D6471" d="M16.9,27.2L19,30l1-2.7l2.8-0.4l-2.1-2.8L16.9,27.2z M16.9,27.2"/>
		<path fill="#4D6471" d="M10.2,25.4l2.6,1l0.4,2.9l2.7-2.2l-3-3.9L10.2,25.4z M10.2,25.4"/>
		<path fill="#4D6471" d="M13.8,0L13,1.2L15.5,3l-2.6,3.8l4.5,5.9l6.5,2.2l2.6-3.8l1.2,0.9l-1.8,2.7l-0.6-0.4l-1.6,2.3l1.9,1.4
			l1.6-2.3l-0.4-0.3l1.8-2.7l0.7,0.5l0.8-1.2L13.8,0z M13.8,0"/>
	</g>
</g>
</svg>
